<svg width="330" height="202" viewBox="0 0 330 202" fill="none" xmlns="http://www.w3.org/2000/svg">
<path d="M304.533 199.537C305.052 200.183 305.997 200.286 306.642 199.767L317.165 191.31C317.811 190.792 317.914 189.847 317.395 189.202C316.876 188.556 315.932 188.453 315.286 188.972L305.932 196.489L298.415 187.135C297.896 186.489 296.952 186.387 296.306 186.906C295.661 187.424 295.558 188.369 296.077 189.014L304.533 199.537ZM3.1792 48.125C4.61114 46.903 6.06329 45.7036 7.53499 44.5271L5.66173 42.1838C4.16505 43.3803 2.68821 44.6001 1.23185 45.8429L3.1792 48.125ZM16.5805 37.7567C19.662 35.5994 22.8162 33.5366 26.0378 31.5717L24.4757 29.0105C21.2003 31.0081 17.9934 33.1055 14.86 35.299L16.5805 37.7567ZM35.8649 25.9933C39.1906 24.2407 42.5778 22.5881 46.0216 21.039L44.7909 18.303C41.2903 19.8777 37.847 21.5577 34.4662 23.3393L35.8649 25.9933ZM56.4679 16.7241C59.9828 15.3981 63.5484 14.1767 67.1598 13.0634L66.276 10.1965C62.6055 11.328 58.9816 12.5694 55.409 13.9172L56.4679 16.7241ZM78.0571 10.0676C81.706 9.18411 85.395 8.40899 89.1194 7.74549L88.5932 4.79199C84.8084 5.46626 81.0595 6.25397 77.3511 7.15188L78.0571 10.0676ZM100.303 6.10356C104.028 5.67217 107.783 5.35166 111.564 5.14508L111.4 2.14955C107.559 2.35944 103.743 2.68511 99.9579 3.12348L100.303 6.10356ZM122.864 4.86951C126.611 4.89107 130.379 5.02474 134.162 5.27339L134.359 2.27985C130.516 2.02726 126.688 1.89146 122.881 1.86956L122.864 4.86951ZM145.418 6.34955C147.282 6.58357 149.149 6.84575 151.018 7.13645L151.479 4.17208C149.581 3.87687 147.685 3.6106 145.792 3.37292L145.418 6.34955ZM151.018 7.13645C152.886 7.42691 154.743 7.74374 156.589 8.08648L157.136 5.13691C155.262 4.78882 153.376 4.46705 151.479 4.17208L151.018 7.13645ZM167.603 10.4698C171.273 11.3786 174.894 12.3914 178.461 13.5043L179.355 10.6404C175.73 9.50973 172.052 8.48085 168.324 7.55771L167.603 10.4698ZM189.121 17.185C192.652 18.5244 196.124 19.9641 199.534 21.4998L200.766 18.7644C197.301 17.2038 193.773 15.741 190.186 14.3801L189.121 17.185ZM209.663 26.4366C213.004 28.1926 216.277 30.0439 219.48 31.9859L221.035 29.4206C217.78 27.4469 214.454 25.5656 211.059 23.7811L209.663 26.4366ZM228.935 38.1223C232.031 40.2696 235.051 42.5054 237.992 44.8252L239.85 42.4698C236.861 40.112 233.791 37.8395 230.644 35.6571L228.935 38.1223ZM246.624 52.078C249.431 54.5887 252.154 57.1804 254.788 59.8484L256.923 57.7407C254.245 55.0285 251.478 52.394 248.624 49.8419L246.624 52.078ZM262.45 68.1104C264.922 70.9487 267.301 73.8597 269.582 76.8384L271.964 75.0143C269.644 71.9855 267.226 69.0258 264.713 66.1401L262.45 68.1104ZM276.147 85.9967C278.239 89.1206 280.23 92.308 282.115 95.5539L284.709 94.0473C282.792 90.7458 280.767 87.5041 278.639 84.3272L276.147 85.9967ZM287.455 105.475C289.128 108.838 290.691 112.254 292.14 115.72L294.908 114.563C293.433 111.036 291.843 107.56 290.142 104.139L287.455 105.475ZM296.141 126.249C297.357 129.798 298.457 133.389 299.436 137.02L302.332 136.239C301.336 132.543 300.217 128.888 298.979 125.277L296.141 126.249ZM302.003 147.989C302.733 151.66 303.341 155.365 303.823 159.099L306.799 158.714C306.307 154.913 305.688 151.142 304.945 147.404L302.003 147.989ZM304.888 170.31C305.115 174.042 305.217 177.798 305.189 181.573L308.189 181.594C308.217 177.752 308.113 173.928 307.882 170.128L304.888 170.31ZM304.728 192.817C304.588 194.687 304.416 196.56 304.212 198.436L307.194 198.76C307.402 196.851 307.577 194.945 307.719 193.042L304.728 192.817ZM303.364 200.477C304.402 201.769 306.29 201.974 307.582 200.936L328.628 184.023C329.92 182.985 330.125 181.097 329.087 179.805C328.05 178.514 326.161 178.308 324.87 179.346L306.162 194.38L291.128 175.672C290.09 174.381 288.202 174.175 286.91 175.213C285.619 176.251 285.413 178.139 286.451 179.431L303.364 200.477ZM4.15287 49.266C5.57261 48.0545 7.01241 46.8652 8.47163 45.6987L4.72509 41.0122C3.21593 42.2186 1.72674 43.4487 0.258177 44.7019L4.15287 49.266ZM17.4407 38.9855C20.4964 36.8463 23.6241 34.8008 26.8188 32.8523L23.6947 27.7299C20.3924 29.7439 17.159 31.8585 13.9997 34.0702L17.4407 38.9855ZM36.5642 27.3204C39.8623 25.5823 43.2215 23.9433 46.637 22.4069L44.1755 16.9351C40.6465 18.5225 37.1753 20.2161 33.7669 22.0123L36.5642 27.3204ZM56.9973 18.1275C60.4834 16.8124 64.0198 15.601 67.6017 14.4968L65.8341 8.76309C62.1341 9.90372 58.481 11.1551 54.8795 12.5137L56.9973 18.1275ZM78.4101 11.5255C82.0293 10.6492 85.6883 9.88036 89.3825 9.22224L88.3301 3.31524C84.5151 3.9949 80.7362 4.7889 76.9981 5.694L78.4101 11.5255ZM100.476 7.59361C104.171 7.16569 107.896 6.84776 111.646 6.64284L111.319 0.651782C107.447 0.863337 103.601 1.19159 99.7854 1.63344L100.476 7.59361ZM122.856 6.36949C126.573 6.39087 130.31 6.52347 134.064 6.77016L134.457 0.783078C130.584 0.528525 126.727 0.391656 122.89 0.369586L122.856 6.36949ZM145.232 7.83787C147.081 8.07005 148.933 8.3302 150.788 8.61863L151.71 2.68989C149.797 2.39243 147.887 2.12411 145.979 1.8846L145.232 7.83787ZM150.788 8.61863C152.641 8.90684 154.484 9.22121 156.315 9.56126L157.41 3.66213C155.522 3.31136 153.621 2.98712 151.71 2.68989L150.788 8.61863ZM167.242 11.9258C170.884 12.8274 174.476 13.8322 178.015 14.9362L179.801 9.20845C176.149 8.06892 172.442 7.03199 168.684 6.10167L167.242 11.9258ZM188.589 18.5875C192.092 19.9161 195.536 21.3442 198.918 22.8675L201.382 17.3967C197.889 15.8237 194.333 14.3493 190.718 12.9776L188.589 18.5875ZM208.965 27.7643C212.279 29.5061 215.526 31.3423 218.702 33.2685L221.813 28.1379C218.532 26.1485 215.179 24.2521 211.757 22.4533L208.965 27.7643ZM228.08 39.3549C231.151 41.4846 234.146 43.7022 237.063 46.0029L240.779 41.2921C237.766 38.9153 234.671 36.6245 231.499 34.4246L228.08 39.3549ZM245.624 53.1961C248.408 55.6861 251.108 58.2563 253.72 60.9022L257.99 56.6869C255.291 53.9526 252.501 51.2966 249.624 48.7239L245.624 53.1961ZM261.319 69.0955C263.771 71.9102 266.129 74.7968 268.391 77.7504L273.155 74.1022C270.816 71.0484 268.378 68.0643 265.844 65.155L261.319 69.0955ZM274.901 86.8314C276.975 89.9288 278.949 93.0891 280.818 96.3072L286.006 93.2941C284.073 89.9647 282.031 86.6959 279.886 83.4925L274.901 86.8314ZM286.112 106.142C287.77 109.476 289.319 112.864 290.756 116.299L296.292 113.984C294.804 110.427 293.201 106.921 291.485 103.471L286.112 106.142ZM294.722 126.736C295.927 130.252 297.017 133.812 297.988 137.411L303.78 135.848C302.775 132.12 301.646 128.433 300.398 124.791L294.722 126.736ZM300.532 148.281C301.255 151.92 301.857 155.591 302.336 159.291L308.286 158.522C307.79 154.687 307.166 150.882 306.416 147.112L300.532 148.281ZM303.391 170.401C303.616 174.1 303.716 177.821 303.689 181.562L309.689 181.605C309.717 177.728 309.613 173.871 309.38 170.037L303.391 170.401ZM303.232 192.705C303.093 194.558 302.923 196.414 302.72 198.273L308.685 198.923C308.895 196.997 309.071 195.073 309.215 193.154L303.232 192.705Z" fill="#4E4E4E"/>
</svg>
